# xmcd
#
# Track frame offsets:
# 150
# 18375
# 38541
# 55808
# 76771
# 104513
#
# Disc length: 1702 seconds
#
# Revision: 0
# Processed by: cddbd v1.5.1PL0 Copyright (c) Steve Scherf et al.
# Submitted via: Audion 2.5.0 (http://www.panic.com/audion/)
#
DISCID=3b06a406
DTITLE=Ozone Uno - Ozone Uno
DYEAR=1900
DGENRE=
TTITLE0=E se stanotte... (non c'è)
TTITLE1=Eden
TTITLE2=Qualcosa è cambiato
TTITLE3=Solo x te
TTITLE4=L'ultimo cow-boy
TTITLE5=Questa voglia di libertaà
EXTD=
EXTT0=
EXTT1=
EXTT2=
EXTT3=
EXTT4=
EXTT5=
PLAYORDER=
